<svg width="405" height="829" viewBox="0 0 405 829" version="1.1" xmlns="http://www.w3.org/2000/svg" xmlns:xlink="http://www.w3.org/1999/xlink">
<title>Component</title>
<desc>Created using Figma</desc>
<g id="Canvas" transform="translate(230 521)">
<g id="Component">
<g id="pixel_black">
<g id="Vector">
<use xlink:href="#path0_fill" transform="translate(-230 -521)" fill="#424242"/>
</g>
<g id="Vector">
<use xlink:href="#path1_fill" transform="translate(-230 -521)" fill="#353535"/>
</g>
<g id="Vector">
<use xlink:href="#path2_fill" transform="translate(-222 -513)" fill="#1D1D1D"/>
</g>
<g id="Vector">
<use xlink:href="#path3_fill" transform="translate(-210 -451)"/>
</g>
<g id="Vector">
<use xlink:href="#path4_fill" transform="translate(-209 -427)" fill="#FFFFFF"/>
</g>
<g id="Vector">
<use xlink:href="#path5_fill" transform="translate(-161 -488)" fill="#424242"/>
</g>
<g id="Vector">
<use xlink:href="#path6_fill" transform="translate(-157 -484)" fill="#212121"/>
</g>
</g>
</g>
</g>
<defs>
<path id="path0_fill" d="M 339 0L 63 0C 28.2061 0 0 28.2061 0 63L 0 766C 0 800.794 28.2061 829 63 829L 339 829C 373.794 829 402 800.794 402 766L 402 446C 403.657 446 405 444.657 405 443L 405 335C 405 333.343 403.657 332 402 332L 402 262C 403.657 262 405 260.657 405 259L 405 208C 405 206.343 403.657 205 402 205L 402 63C 402 28.2061 373.794 0 339 0Z"/>
<path id="path1_fill" d="M 284 87L 0 87L 0 77L 284 77L 284 0L 292 0L 292 77L 402 77L 402 87L 292 87L 292 771L 401.804 771C 401.481 775.124 400.76 779.137 399.68 783L 2.32031 783C 1.24036 779.137 0.519409 775.124 0.195557 771L 284 771L 284 87Z"/>
<path id="path2_fill" d="M 0 55C 0 24.6243 24.6243 0 55 0L 331 0C 361.376 0 386 24.6243 386 55L 386 758C 386 788.376 361.376 813 331 813L 55 813C 24.6243 813 0 788.376 0 758L 0 55Z"/>
<path id="path3_fill" d="M 165 6.5C 165 2.91015 167.91 0 171.5 0L 190.5 0C 194.09 0 197 2.91015 197 6.5C 197 10.0899 194.09 13 190.5 13L 171.5 13C 167.91 13 165 10.0899 165 6.5ZM 0 23L 362 23L 362 665L 0 665L 0 23Z"/>
<path id="path4_fill" d="M 0 0L 360 0L 360 640L 0 640L 0 0Z"/>
<path id="path5_fill" d="M 18 9C 18 13.9706 13.9706 18 9 18C 4.02944 18 0 13.9706 0 9C 0 4.02944 4.02944 0 9 0C 13.9706 0 18 4.02944 18 9ZM 88 9C 88 7.34315 89.3431 6 91 6L 173 6C 174.657 6 176 7.34315 176 9C 176 10.6568 174.657 12 173 12L 91 12C 89.3431 12 88 10.6568 88 9Z"/>
<path id="path6_fill" d="M 10 5C 10 7.76142 7.76142 10 5 10C 2.23858 10 0 7.76142 0 5C 0 2.23858 2.23858 0 5 0C 7.76142 0 10 2.23858 10 5Z"/>
</defs>
</svg>
